<?xml version="1.0" standalone="no"?>
<!DOCTYPE svg PUBLIC "-//W3C//DTD SVG 20010904//EN"
 "http://www.w3.org/TR/2001/REC-SVG-20010904/DTD/svg10.dtd">
<svg version="1.0" xmlns="http://www.w3.org/2000/svg"
 width="500.000000pt" height="500.000000pt" viewBox="0 0 500.000000 500.000000"
 preserveAspectRatio="xMidYMid meet">

<g transform="translate(0.000000,500.000000) scale(0.100000,-0.100000)"
fill="#000000" stroke="none">
<path d="M0 2500 l0 -2500 2500 0 2500 0 0 2500 0 2500 -2500 0 -2500 0 0
-2500z m1774 463 c34 -90 64 -163 67 -163 4 0 23 47 44 105 l37 105 64 0 c35
0 64 -2 64 -4 0 -3 -42 -112 -155 -403 -26 -68 -51 -123 -55 -123 -3 0 -37 82
-75 183 -38 100 -79 207 -92 237 l-24 55 -65 -170 c-36 -94 -76 -200 -91 -237
-14 -38 -29 -68 -34 -68 -5 0 -9 2 -9 4 0 1 -34 93 -76 202 -41 109 -86 227
-99 262 l-24 62 63 0 64 0 38 -105 c21 -58 41 -105 44 -105 3 0 29 64 58 143
30 78 58 152 63 165 8 21 14 23 70 20 l62 -3 61 -162z m759 135 c111 -48 186
-189 174 -325 -11 -119 -78 -220 -177 -267 -36 -17 -63 -21 -135 -21 -77 1
-97 5 -141 27 -59 31 -108 83 -138 147 -17 37 -21 65 -21 146 0 94 2 104 33
161 78 143 248 199 405 132z m490 21 c79 -16 124 -57 143 -127 24 -94 -12
-184 -89 -227 -17 -9 -15 -19 36 -127 81 -172 81 -160 3 -156 l-67 3 -57 125
c-58 125 -58 125 -95 128 l-37 3 0 -130 0 -131 -60 0 -60 0 0 190 0 190 129 0
c115 0 131 2 155 21 31 25 34 66 7 100 -18 23 -26 24 -155 27 l-136 4 0 52 c0
29 3 56 7 59 11 11 215 8 276 -4z m305 -142 l3 -149 55 69 c31 37 86 105 122
150 l67 83 67 0 c37 0 69 -3 71 -7 3 -5 -44 -69 -104 -143 -60 -74 -117 -146
-128 -160 l-19 -26 66 -75 c94 -107 192 -226 192 -233 0 -3 -35 -6 -77 -5
l-78 0 -90 114 c-49 63 -93 114 -96 114 -3 1 -41 -39 -85 -89 -43 -49 -82 -90
-86 -90 -10 0 -11 584 -1 594 4 4 32 6 63 4 l55 -3 3 -148z m-1641 -782 c73
-200 153 -427 153 -436 0 -5 -33 -9 -74 -9 l-74 0 -11 45 -11 45 -104 0 -104
0 -14 -42 -15 -43 -71 -3 c-40 -2 -72 1 -72 5 0 4 46 133 102 286 l103 278 74
-3 73 -3 45 -120z m313 123 c1 -30 80 -378 83 -368 3 8 17 79 32 157 14 78 31
158 36 178 l10 35 73 0 73 0 37 -177 c20 -98 37 -189 37 -203 1 -32 9 0 44
175 14 72 29 146 33 165 l8 35 72 3 c54 2 72 0 72 -10 0 -13 -21 -97 -100
-395 l-43 -163 -82 0 -82 0 -32 153 c-17 83 -31 160 -31 170 0 9 -4 17 -10 17
-5 0 -10 -8 -10 -17 0 -10 -14 -87 -31 -170 l-32 -153 -82 0 -82 0 -48 183
c-74 278 -94 361 -95 375 0 8 22 12 75 12 41 0 75 -1 75 -2z m1003 -88 c16
-47 60 -171 98 -275 38 -105 69 -194 69 -198 0 -4 -33 -7 -74 -7 l-74 0 -11
45 -11 46 -107 -3 -107 -3 -12 -40 -11 -40 -76 -3 -77 -3 11 28 c28 71 199
537 199 540 0 2 34 3 76 1 l77 -3 30 -85z m382 -22 c30 -62 57 -113 60 -113 3
0 32 50 64 110 l58 110 72 3 c39 2 71 0 71 -3 0 -3 -43 -83 -95 -178 l-95
-173 0 -107 0 -107 -75 0 -75 0 0 107 0 106 -77 136 c-42 75 -87 155 -101 179
l-24 42 82 0 81 0 54 -112z"/>
<path d="M2325 2997 c-89 -41 -138 -166 -104 -268 29 -85 89 -130 173 -131
114 -1 178 64 184 187 7 133 -53 213 -165 221 -37 3 -69 -1 -88 -9z m125 -169
c13 -25 13 -31 0 -55 -9 -16 -26 -29 -38 -31 -35 -5 -72 24 -72 55 0 64 79 86
110 31z"/>
<path d="M1537 2080 c-16 -51 -31 -99 -34 -106 -4 -11 9 -14 62 -14 64 0 66 1
59 23 -4 12 -19 60 -33 106 l-26 84 -28 -93z"/>
<path d="M2861 2071 c-18 -57 -30 -105 -28 -108 3 -2 32 -3 65 -1 l60 3 -33
104 -32 105 -32 -103z"/>
</g>
</svg>
